<?xml version="1.0" encoding="UTF-8" ?>
<!DOCTYPE svg PUBLIC "-//W3C//DTD SVG 1.1//EN" "http://www.w3.org/Graphics/SVG/1.1/DTD/svg11.dtd">
<svg width="322pt" height="400pt" viewBox="0 0 322 400" version="1.1" xmlns="http://www.w3.org/2000/svg">
<g id="#c88f4dff">
<path fill="#c88f4d" stroke="#c88f4d" stroke-width="0.09375" opacity="1.00" d=" M 0.00 0.00 L 0.41 0.00 C 0.31 0.10 0.10 0.31 0.00 0.41 L 0.00 0.00 Z" />
<path fill="#c88f4d" stroke="#c88f4d" stroke-width="0.09375" opacity="1.00" d=" M 131.40 19.19 C 136.22 17.67 142.47 20.01 144.19 25.00 C 141.98 28.13 139.38 30.97 136.91 33.90 C 133.68 37.70 127.97 39.16 126.15 44.15 C 124.47 47.79 125.87 52.62 129.42 54.58 C 132.10 56.10 135.11 56.92 137.86 58.31 C 137.50 60.46 136.75 62.65 135.25 64.27 C 130.31 66.75 123.54 66.70 119.70 62.27 C 117.04 58.35 118.14 53.31 118.67 48.93 C 119.86 39.55 123.27 30.51 128.46 22.62 C 129.32 21.38 130.22 20.14 131.40 19.19 Z" />
<path fill="#c88f4d" stroke="#c88f4d" stroke-width="0.09375" opacity="1.00" d=" M 220.20 23.37 C 221.35 22.76 222.15 24.40 222.84 25.08 C 224.12 26.95 225.00 29.07 225.92 31.14 C 228.50 37.13 231.22 43.12 232.52 49.55 C 233.82 55.71 234.53 62.30 232.43 68.37 C 231.42 71.47 228.59 73.64 225.60 74.67 C 222.53 75.58 219.43 73.80 217.26 71.75 C 213.60 68.24 210.88 63.88 208.56 59.40 C 206.53 55.59 206.07 51.22 204.53 47.23 C 203.94 47.15 202.76 46.98 202.17 46.90 C 201.48 47.72 201.27 48.65 201.52 49.69 C 202.03 52.78 203.13 55.75 204.38 58.62 C 206.13 62.73 209.54 65.99 210.73 70.36 C 212.29 76.11 211.67 82.12 211.78 87.99 C 211.77 96.06 213.58 104.03 213.15 112.11 C 208.15 109.17 204.85 104.18 200.02 101.03 C 199.42 102.06 198.53 103.35 199.41 104.51 C 201.46 107.75 204.66 110.00 207.41 112.60 C 213.45 118.21 220.03 123.47 224.48 130.52 C 227.32 135.16 230.53 139.71 232.10 144.98 C 226.23 144.96 220.28 144.96 214.57 143.42 C 208.13 142.02 200.62 141.11 194.96 145.24 C 195.11 145.78 195.39 146.87 195.54 147.41 C 197.89 149.48 200.74 150.87 203.28 152.68 C 209.02 156.50 213.91 161.40 218.66 166.36 C 221.63 169.57 224.58 173.32 224.93 177.85 C 223.55 180.04 221.55 181.88 219.26 183.09 C 216.68 184.07 213.84 183.97 211.13 184.26 C 203.13 184.79 195.17 185.90 187.15 186.20 C 190.89 182.12 194.73 177.91 196.58 172.57 C 198.01 169.51 197.93 165.85 199.83 163.03 C 200.34 165.05 200.65 167.11 201.19 169.13 C 204.98 169.14 204.72 164.25 202.91 162.07 C 199.74 155.83 192.87 153.47 187.74 149.29 C 184.30 146.75 180.62 143.88 176.11 143.95 C 176.44 145.37 176.95 146.89 178.30 147.66 C 183.28 151.02 189.00 153.36 193.38 157.56 C 194.96 158.87 194.92 161.07 194.85 162.93 C 194.47 169.57 191.25 175.88 186.47 180.43 C 183.03 183.61 178.39 185.16 173.83 185.81 C 169.45 186.44 165.02 185.37 160.65 185.72 C 160.04 187.29 160.06 189.09 159.56 190.74 C 159.13 194.77 155.88 197.56 153.79 200.79 C 150.54 205.63 145.53 209.03 140.14 211.09 C 133.75 213.56 126.82 214.90 119.96 214.09 C 110.16 213.09 100.37 211.28 91.07 207.98 C 82.35 204.37 73.92 199.52 67.49 192.50 C 64.22 189.11 61.55 184.76 56.93 183.03 C 56.62 184.33 55.88 185.86 57.00 186.99 C 59.92 190.93 63.94 193.91 66.82 197.89 C 60.31 199.66 53.28 200.09 46.77 198.17 C 41.79 196.70 38.73 192.20 35.37 188.58 C 32.50 185.41 29.95 181.49 30.18 177.03 C 30.55 169.54 34.39 162.72 38.80 156.86 C 42.21 152.76 46.01 148.78 50.74 146.22 C 51.60 148.96 51.78 152.04 53.64 154.36 C 56.84 158.42 61.44 161.20 66.36 162.66 C 77.25 165.94 88.75 165.75 100.00 165.65 C 107.98 165.39 116.80 164.63 122.97 158.96 C 127.34 155.46 127.98 147.24 122.84 144.14 C 118.18 140.76 112.50 139.20 106.92 138.08 C 100.36 136.81 93.72 135.70 87.01 135.75 C 80.21 135.69 73.48 136.90 66.69 137.00 C 70.54 134.78 74.68 132.95 79.08 132.16 C 85.05 131.17 91.08 132.10 97.05 132.65 C 103.31 133.22 109.55 134.16 115.72 135.41 C 121.51 136.56 127.09 138.90 133.06 138.98 C 132.93 138.34 132.69 137.05 132.57 136.41 C 128.20 134.49 123.31 134.10 118.97 132.08 C 126.71 133.65 134.67 134.27 142.19 136.83 C 144.65 137.69 147.26 137.17 149.80 137.16 C 153.48 137.16 157.27 138.20 160.82 136.78 C 165.91 135.30 168.91 130.53 171.14 126.06 C 177.87 113.13 176.68 96.95 169.53 84.45 C 167.93 81.84 166.06 78.78 162.79 78.18 C 157.51 77.09 152.41 80.21 149.09 84.08 C 146.31 87.14 144.90 91.08 142.96 94.66 C 139.90 93.37 136.97 90.44 133.41 91.43 C 128.00 93.02 123.68 97.58 121.84 102.84 C 119.94 108.19 119.11 114.07 120.26 119.67 C 121.11 123.57 124.04 126.46 126.09 129.74 C 120.69 129.05 115.41 127.68 110.00 127.11 C 104.03 126.38 98.01 126.47 92.02 126.03 C 102.53 117.25 112.03 107.35 122.32 98.32 C 124.94 95.92 127.76 93.40 128.77 89.85 C 129.84 86.48 131.33 83.27 133.12 80.23 C 136.94 73.55 138.64 65.95 142.08 59.09 C 143.47 56.41 143.89 53.26 145.59 50.74 C 147.64 50.05 149.83 50.16 151.95 50.12 C 160.31 50.15 168.65 50.83 177.02 50.62 C 181.70 50.43 186.15 52.07 190.75 52.62 C 192.47 50.63 193.58 48.20 195.10 46.07 C 196.84 43.53 199.31 41.65 201.59 39.63 C 206.25 35.61 210.29 30.93 214.86 26.82 C 216.45 25.42 218.15 24.03 220.20 23.37 M 163.49 63.45 C 161.84 64.08 160.36 65.09 158.97 66.17 C 161.56 68.72 166.00 66.97 168.76 69.29 C 171.62 71.53 173.82 75.59 178.02 75.00 C 178.75 70.49 174.68 67.80 171.59 65.44 C 169.34 63.67 166.35 62.13 163.49 63.45 M 143.49 69.48 C 141.47 70.28 138.95 71.46 138.75 73.93 C 143.06 74.44 147.41 74.37 151.74 74.76 C 153.89 73.77 152.85 71.05 152.83 69.22 C 149.76 68.61 146.49 68.46 143.49 69.48 M 39.21 168.97 C 36.72 171.21 36.86 175.11 37.87 178.03 C 38.86 180.73 42.12 181.40 44.65 180.93 C 46.83 179.14 47.59 176.02 46.82 173.36 C 45.26 170.77 42.33 168.74 39.21 168.97 M 135.41 175.31 C 133.50 178.12 132.30 181.97 133.78 185.23 C 135.24 187.85 138.49 190.17 141.56 188.86 C 143.22 187.01 143.21 184.35 143.07 182.02 C 143.14 178.18 139.16 174.71 135.41 175.31 M 47.20 183.82 C 44.59 187.39 44.16 194.08 48.80 196.23 C 51.84 198.05 55.43 194.30 54.73 191.21 C 54.13 187.62 51.24 183.46 47.20 183.82 M 117.33 185.04 C 113.48 186.86 112.51 192.54 115.13 195.79 C 117.00 198.58 121.36 198.81 123.76 196.59 C 124.87 192.69 123.77 188.42 121.70 185.03 C 120.29 184.60 118.71 184.43 117.33 185.04 M 128.46 193.36 C 126.04 195.23 126.13 198.77 126.43 201.53 C 126.67 205.80 134.18 208.20 135.66 203.52 C 137.12 199.11 133.83 192.13 128.46 193.36 Z" />
<path fill="#c88f4d" stroke="#c88f4d" stroke-width="0.09375" opacity="1.00" d=" M 141.20 126.62 L 141.77 126.24 C 142.62 128.48 143.27 130.79 143.72 133.14 C 141.14 132.92 138.59 132.41 136.09 131.76 C 137.47 129.76 139.20 128.00 141.20 126.62 Z" />
<path fill="#c88f4d" stroke="#c88f4d" stroke-width="0.09375" opacity="1.00" d=" M 113.80 131.25 C 114.58 130.28 116.40 130.29 117.19 131.25 C 117.34 132.91 113.65 132.91 113.80 131.25 Z" />
<path fill="#c88f4d" stroke="#c88f4d" stroke-width="0.09375" opacity="1.00" d=" M 40.05 174.02 C 41.39 174.64 42.70 175.33 43.94 176.13 C 43.43 176.77 42.83 177.33 42.16 177.81 C 41.36 176.60 40.70 175.31 40.05 174.02 Z" />
<path fill="#c88f4d" stroke="#c88f4d" stroke-width="0.09375" opacity="1.00" d=" M 137.40 180.63 C 137.74 180.48 138.42 180.19 138.76 180.04 C 139.38 181.98 139.72 183.99 139.85 186.01 C 137.81 185.29 136.47 183.52 136.22 181.39 C 136.52 181.20 137.11 180.82 137.40 180.63 Z" />
<path fill="#c88f4d" stroke="#c88f4d" stroke-width="0.09375" opacity="1.00" d=" M 49.19 189.33 C 51.58 188.54 50.75 191.13 50.76 192.55 C 50.35 192.60 49.53 192.69 49.13 192.74 C 49.08 191.60 49.10 190.46 49.19 189.33 Z" />
<path fill="#c88f4d" stroke="#c88f4d" stroke-width="0.09375" opacity="1.00" d=" M 118.05 188.88 C 119.91 190.37 119.79 192.86 119.94 195.01 C 119.05 194.23 118.13 193.47 117.45 192.49 C 117.31 191.26 117.70 190.04 118.05 188.88 Z" />
<path fill="#c88f4d" stroke="#c88f4d" stroke-width="0.09375" opacity="1.00" d=" M 129.98 197.95 C 131.60 199.11 132.44 200.93 132.18 202.91 C 129.96 202.31 130.25 199.73 129.98 197.95 Z" />
<path fill="#c88f4d" stroke="#c88f4d" stroke-width="0.09375" opacity="1.00" d=" M 159.38 202.31 C 161.46 201.49 163.78 201.92 165.97 201.87 C 175.81 202.31 185.67 201.55 195.49 202.38 C 201.97 202.89 208.48 202.74 214.95 203.31 C 213.68 205.52 211.97 207.53 209.68 208.72 C 203.39 212.19 196.03 212.51 189.03 212.89 C 185.53 213.14 181.90 213.11 178.58 214.36 C 176.88 215.67 177.05 218.04 176.91 219.95 C 176.91 224.62 177.03 229.50 178.98 233.84 C 180.57 233.42 182.14 232.90 183.78 232.66 C 186.60 232.98 189.25 234.15 191.92 235.06 C 195.67 236.50 199.60 237.73 202.86 240.14 C 205.48 242.56 206.73 246.18 209.65 248.34 C 214.54 251.89 220.52 253.60 226.44 254.45 C 229.06 254.94 232.00 255.07 234.06 256.98 C 243.61 265.25 248.47 277.34 251.85 289.20 C 251.83 291.27 254.04 290.82 255.07 289.76 C 255.33 282.27 250.26 276.13 248.79 269.03 C 254.69 272.12 257.28 278.99 263.20 282.03 C 262.96 274.66 256.14 270.65 251.75 265.71 C 256.56 265.50 261.26 266.69 265.82 268.08 C 276.48 271.07 286.40 276.92 293.82 285.19 C 303.56 294.52 310.27 306.95 312.95 320.15 C 314.91 329.08 311.70 338.90 304.81 344.91 C 302.29 343.85 300.62 341.39 299.40 339.03 C 302.83 335.52 307.16 332.19 307.70 326.92 C 308.29 325.64 306.21 325.56 305.45 325.26 C 303.95 327.53 302.95 330.11 301.20 332.22 C 299.37 334.22 296.92 335.49 294.94 337.33 C 294.58 338.67 295.02 340.09 295.78 341.21 C 298.00 344.93 301.27 347.94 303.29 351.80 C 304.39 353.54 302.89 355.41 302.70 357.22 C 307.02 360.92 314.26 359.41 317.88 364.28 C 318.95 368.80 316.86 373.51 313.13 376.16 C 301.49 385.13 286.45 387.73 272.16 388.85 C 273.58 386.47 275.19 384.12 277.40 382.41 C 279.51 380.76 281.93 379.52 283.92 377.72 C 284.04 376.71 283.71 375.88 282.94 375.23 C 277.99 376.47 274.01 379.94 270.74 383.70 C 268.74 385.70 266.91 388.47 263.86 388.80 C 259.11 389.33 254.17 389.34 249.57 387.93 C 250.33 383.88 253.68 381.09 256.97 379.00 C 261.53 376.07 267.05 375.26 271.75 372.64 C 271.83 371.95 271.98 370.58 272.06 369.89 C 268.32 369.61 264.67 370.73 261.34 372.35 C 257.85 374.04 254.29 375.77 251.37 378.36 C 248.81 380.64 247.49 383.90 245.42 386.57 C 242.32 387.35 239.03 386.15 236.42 384.51 C 234.64 383.44 234.21 381.15 234.38 379.25 C 234.65 377.01 236.56 375.48 238.34 374.36 C 241.97 372.19 246.20 371.42 250.20 370.16 C 256.43 368.21 262.70 366.19 269.19 365.30 C 273.78 364.68 278.41 365.18 283.02 365.08 C 284.49 365.09 285.94 364.75 287.20 363.99 C 286.58 361.24 283.08 361.60 281.01 360.54 C 283.62 360.05 286.30 359.71 288.77 358.66 C 288.80 358.04 288.85 356.78 288.87 356.16 C 283.92 355.57 278.94 356.45 273.98 356.16 C 268.34 355.92 262.88 353.86 258.19 350.79 C 255.22 348.72 252.30 345.80 252.00 342.00 C 251.09 333.71 256.11 326.28 261.34 320.36 C 267.95 313.93 275.91 309.05 284.02 304.76 C 283.69 303.77 283.28 302.83 282.80 301.92 C 278.07 301.85 274.21 304.91 270.91 307.94 C 266.25 312.31 260.37 315.31 256.38 320.41 C 252.66 325.05 249.60 330.38 248.22 336.21 C 246.70 342.61 249.97 349.14 254.71 353.31 C 258.39 356.56 263.21 357.94 267.52 360.14 C 262.12 361.43 256.54 362.09 250.99 362.02 C 248.86 362.05 247.16 360.63 245.43 359.61 C 242.25 357.45 238.73 355.77 235.86 353.20 C 238.95 348.51 242.93 344.26 244.72 338.81 C 246.30 334.12 247.67 328.60 244.99 324.04 C 239.59 314.68 231.94 306.87 226.33 297.65 C 222.84 291.63 217.94 286.58 214.39 280.60 C 213.21 278.81 212.18 276.71 210.10 275.81 C 209.31 277.20 208.84 278.88 209.59 280.40 C 211.35 284.66 215.06 287.64 217.60 291.40 C 222.01 297.72 226.18 304.21 230.37 310.68 C 234.26 316.76 240.14 321.69 242.23 328.82 C 243.22 331.83 241.95 334.95 240.73 337.69 C 236.47 346.31 230.11 353.63 223.71 360.72 C 222.23 362.87 219.35 362.06 217.27 363.14 C 217.67 365.00 217.90 367.21 219.61 368.39 C 223.27 371.36 227.95 373.94 229.29 378.83 C 229.90 381.60 230.84 384.80 229.61 387.49 C 226.75 390.93 222.52 392.95 218.32 394.23 C 210.77 396.48 202.82 395.29 195.11 396.17 C 191.81 396.55 188.46 396.61 185.21 395.85 C 186.67 392.65 189.13 390.00 191.99 388.00 C 196.73 384.66 201.67 381.63 206.66 378.69 C 208.87 377.32 211.43 375.87 212.10 373.14 C 211.59 372.90 210.57 372.42 210.06 372.18 C 208.16 373.18 206.51 374.58 204.76 375.80 C 198.95 380.03 192.02 382.69 186.89 387.85 C 184.45 390.20 182.60 393.17 179.79 395.13 C 175.83 395.10 171.97 393.98 168.24 392.75 C 170.45 387.52 175.07 383.82 179.52 380.53 C 183.50 377.56 188.65 376.64 192.50 373.52 C 192.61 372.91 192.82 371.68 192.93 371.06 C 189.01 371.43 185.44 373.20 182.00 374.98 C 177.36 377.43 172.88 380.39 169.46 384.43 C 167.54 386.62 165.96 389.11 163.81 391.10 C 158.08 390.37 152.58 387.51 148.33 383.64 C 145.68 381.36 145.84 376.81 148.83 374.89 C 159.04 367.82 171.74 365.79 183.87 364.80 C 190.91 364.05 197.99 364.34 205.05 364.41 C 206.83 364.29 208.79 364.56 210.43 363.71 C 211.84 362.32 212.85 360.60 214.25 359.20 C 216.46 356.76 219.41 355.14 221.64 352.71 C 223.04 350.91 223.79 348.72 224.77 346.69 C 226.43 342.85 228.51 339.08 228.99 334.87 C 229.29 331.34 227.59 328.06 226.16 324.94 C 219.80 311.62 208.85 301.37 200.73 289.21 C 199.22 287.08 197.79 284.84 195.75 283.19 C 194.14 282.74 193.41 284.54 193.51 285.84 C 193.75 288.29 195.59 290.13 197.21 291.82 C 201.81 296.29 205.17 301.81 209.40 306.61 C 215.52 313.82 220.91 321.76 224.30 330.64 C 225.45 333.57 224.62 336.77 223.55 339.60 C 222.44 342.39 221.06 345.19 218.82 347.25 C 213.66 346.86 209.44 343.46 205.30 340.69 C 195.84 333.89 190.82 322.98 186.38 312.58 C 182.69 303.41 179.53 293.69 172.83 286.18 C 169.68 282.54 165.58 278.11 160.24 279.18 C 154.25 279.83 150.38 285.32 148.59 290.61 C 145.90 298.94 148.13 307.67 148.80 316.12 C 147.78 314.03 146.98 311.83 146.65 309.51 C 145.72 303.38 143.87 297.26 144.81 291.00 C 146.18 280.35 150.99 270.52 156.34 261.34 C 159.95 255.06 162.78 248.20 167.84 242.88 C 169.86 240.49 173.17 240.11 175.68 238.45 C 177.06 234.16 174.27 230.13 172.57 226.38 C 171.19 223.85 170.85 220.96 170.22 218.19 C 170.14 216.95 168.94 216.31 167.87 216.09 C 164.80 216.37 161.87 217.66 158.76 217.50 C 153.95 217.16 149.16 216.10 144.73 214.18 C 147.30 211.92 150.14 210.00 152.71 207.74 C 154.90 205.90 156.88 203.76 159.38 202.31 Z" />
<path fill="#c88f4d" stroke="#c88f4d" stroke-width="0.09375" opacity="1.00" d=" M 300.39 258.19 L 301.06 257.70 C 307.18 261.28 309.27 268.47 311.28 274.79 C 313.44 280.71 310.05 288.03 304.08 290.11 C 301.76 288.56 299.29 286.67 298.27 283.98 C 298.88 280.60 300.56 277.44 300.68 273.96 C 300.80 269.57 298.94 265.42 298.84 261.06 C 298.75 259.78 299.27 258.82 300.39 258.19 Z" />
<path fill="#c88f4d" stroke="#c88f4d" stroke-width="0.09375" opacity="1.00" d=" M 139.47 297.50 C 139.86 297.33 140.66 297.00 141.06 296.83 C 141.37 300.05 141.81 303.43 140.85 306.59 C 138.50 309.05 135.45 310.68 132.84 312.83 C 126.47 317.79 121.17 324.00 116.89 330.82 C 114.81 334.34 110.79 337.77 112.22 342.31 C 114.24 343.81 116.90 344.57 118.21 346.89 C 119.71 348.63 118.94 351.12 118.02 352.94 C 117.81 354.55 119.87 354.88 121.04 354.92 C 126.32 355.14 131.63 355.08 136.84 356.08 C 144.89 357.55 153.10 359.58 160.02 364.12 C 157.58 366.38 153.67 367.58 150.21 367.95 C 146.67 365.97 144.11 362.25 140.01 361.30 C 139.49 361.52 138.46 361.96 137.94 362.18 C 138.06 362.73 138.30 363.83 138.42 364.38 C 141.07 366.39 144.29 367.63 146.65 370.04 C 145.58 372.45 143.82 374.59 143.29 377.23 C 143.01 379.94 143.49 382.65 143.51 385.36 C 141.99 385.28 139.94 385.72 139.12 384.03 C 136.97 380.87 135.24 377.30 132.12 374.92 C 128.98 372.45 126.20 369.45 122.65 367.54 C 121.25 366.66 120.15 368.31 119.17 369.07 C 123.22 373.32 128.27 376.46 132.39 380.64 C 133.86 382.03 134.65 383.93 135.12 385.87 C 129.46 385.59 123.84 384.68 118.25 383.72 C 111.78 382.42 104.99 380.40 100.21 375.61 C 98.82 369.94 104.01 365.57 104.67 360.22 C 103.25 357.79 101.18 355.80 99.07 353.98 C 95.45 350.85 90.66 349.49 87.09 346.31 C 88.91 344.35 91.01 342.69 93.03 340.96 C 97.01 337.61 100.53 333.76 104.48 330.39 C 110.19 325.48 115.16 319.79 120.02 314.05 C 122.90 310.59 126.47 307.80 129.77 304.76 C 132.77 302.07 135.77 299.23 139.47 297.50 Z" />
</g>
<g id="#ffffffff">
<path fill="#ffffff" stroke="#ffffff" stroke-width="0.09375" opacity="1.00" d=" M 158.39 82.37 C 160.14 81.88 162.39 81.83 163.60 83.44 C 169.36 89.76 171.60 98.62 171.67 107.00 C 171.45 114.89 169.36 123.10 164.32 129.33 C 161.72 132.60 157.04 135.02 152.95 133.07 C 148.64 131.58 146.51 126.96 145.76 122.78 C 147.26 121.60 149.06 120.41 149.48 118.42 C 150.42 114.87 151.01 110.94 149.77 107.40 C 148.29 105.70 145.81 104.86 144.84 102.79 C 145.25 98.61 147.18 94.75 149.10 91.07 C 151.22 87.38 154.07 83.52 158.39 82.37 Z" />
<path fill="#ffffff" stroke="#ffffff" stroke-width="0.09375" opacity="1.00" d=" M 133.41 95.35 C 136.46 94.40 139.64 97.11 139.94 100.10 C 140.33 104.75 138.93 109.32 138.95 113.96 C 138.82 116.52 139.24 119.13 138.66 121.64 C 137.49 124.22 135.46 126.55 132.84 127.70 C 127.76 126.91 124.43 121.92 123.92 117.06 C 122.64 108.95 125.68 99.17 133.41 95.35 M 126.41 108.10 C 125.09 111.93 123.78 116.58 126.16 120.27 C 127.59 120.23 129.14 120.25 130.42 119.52 C 133.06 116.30 133.20 111.28 130.81 107.86 C 129.36 107.46 127.78 107.40 126.41 108.10 Z" />
<path fill="#ffffff" stroke="#ffffff" stroke-width="0.09375" opacity="1.00" d=" M 46.37 202.46 C 47.55 202.16 48.67 202.90 49.67 203.42 C 50.46 207.06 48.97 211.68 45.19 212.99 C 44.33 209.58 44.38 205.93 45.66 202.64 L 46.37 202.46 Z" />
<path fill="#ffffff" stroke="#ffffff" stroke-width="0.09375" opacity="1.00" d=" M 114.22 218.24 C 116.85 217.81 119.55 217.84 122.20 218.10 C 122.22 221.42 121.46 225.47 118.06 226.94 C 116.60 226.10 115.20 225.04 114.32 223.59 C 113.83 221.85 114.00 220.01 114.22 218.24 Z" />
</g>
<g id="#000000ff">
<path fill="#000000" stroke="#000000" stroke-width="0.09375" opacity="1.00" d=" M 174.52 0.00 L 179.56 0.00 C 186.95 2.02 194.44 5.62 198.82 12.16 C 202.45 17.12 203.86 23.18 206.34 28.70 C 209.80 26.41 212.54 23.20 216.00 20.90 C 218.43 19.16 221.79 19.14 224.43 20.40 C 226.99 22.80 228.27 26.21 229.58 29.39 C 231.43 34.55 233.29 39.72 235.13 44.89 C 237.10 50.38 237.23 56.30 237.04 62.07 C 236.87 65.86 236.41 69.91 234.03 73.02 C 231.96 75.68 229.10 77.99 225.72 78.61 C 222.10 78.85 218.79 76.99 215.31 76.29 C 214.27 91.74 214.21 108.29 221.84 122.26 C 224.83 128.02 229.90 132.31 233.12 137.92 C 234.80 140.71 235.89 143.80 237.42 146.67 C 238.48 148.85 240.71 150.03 242.62 151.34 C 246.63 153.89 250.70 156.90 252.72 161.34 C 254.97 167.21 253.13 173.53 253.52 179.60 C 256.94 181.08 261.56 180.74 263.84 184.17 C 266.11 187.93 266.33 192.80 264.99 196.93 C 263.22 200.57 260.73 203.86 258.07 206.89 C 255.49 207.70 252.41 207.32 250.33 209.33 C 246.70 212.12 243.87 216.51 244.66 221.26 C 250.50 224.09 257.50 226.06 261.15 231.90 C 264.08 238.32 261.53 246.81 255.49 250.52 C 250.39 253.86 244.13 254.13 238.47 255.93 C 240.15 258.01 241.83 260.46 244.46 261.39 C 247.61 261.99 250.85 261.69 254.04 261.85 C 259.51 261.93 264.78 263.59 269.99 265.12 C 275.19 266.83 280.55 268.62 284.87 272.12 C 288.32 274.89 291.36 278.21 295.20 280.50 C 298.26 275.24 296.06 269.16 295.34 263.61 C 294.75 260.27 295.75 256.41 298.66 254.43 C 301.33 252.89 304.68 254.35 306.49 256.56 C 312.16 263.00 314.84 271.66 314.94 280.15 C 314.88 282.59 314.63 285.18 313.22 287.26 C 311.39 289.93 308.66 291.80 306.65 294.32 C 308.50 298.92 311.84 302.76 313.59 307.42 C 317.31 316.47 319.60 327.12 315.51 336.45 C 313.54 341.30 309.48 344.79 306.85 349.21 C 306.89 351.92 308.00 355.18 310.79 356.17 C 314.67 357.83 318.80 359.15 322.00 362.04 L 322.00 370.62 C 320.79 373.63 319.18 376.55 316.71 378.72 C 311.83 383.16 305.37 385.12 299.34 387.44 C 287.51 391.96 274.71 392.74 262.18 392.82 C 256.12 392.54 249.95 392.67 244.09 390.92 C 240.81 390.06 237.63 388.73 234.25 388.40 C 231.83 389.88 230.25 392.34 228.14 394.18 C 225.72 396.46 222.48 397.61 219.26 398.16 C 214.62 398.96 209.92 399.37 205.25 400.00 L 177.62 400.00 C 172.14 398.20 166.51 396.87 161.07 394.97 C 155.67 393.10 150.70 389.75 144.87 389.35 C 137.12 388.81 129.25 390.01 121.58 388.38 C 115.30 387.06 108.96 385.60 103.12 382.87 C 99.99 381.35 96.73 378.72 96.57 374.96 C 96.44 370.12 99.42 365.92 99.87 361.18 C 98.60 357.45 94.87 355.31 91.58 353.55 C 88.23 351.70 84.09 350.52 82.02 347.04 C 83.89 343.67 87.01 341.30 89.89 338.86 C 99.09 331.48 107.39 323.06 115.36 314.39 C 119.99 309.28 126.11 305.82 130.69 300.66 C 138.49 292.09 143.69 281.51 147.79 270.77 C 152.59 260.36 156.79 249.29 164.85 240.88 C 166.97 238.51 169.70 236.68 171.39 233.95 C 170.12 229.61 168.40 225.17 165.47 221.68 C 158.80 220.67 151.96 220.64 145.45 218.63 C 139.45 216.75 132.68 216.03 126.83 218.81 C 124.91 222.06 124.64 226.39 121.59 228.90 C 118.64 229.93 114.87 229.73 112.55 227.43 C 110.67 224.55 111.05 220.88 110.15 217.67 C 105.95 214.74 100.54 214.63 95.72 213.32 C 89.44 212.22 84.26 207.89 77.91 207.04 C 72.64 206.27 67.30 206.11 61.98 205.93 C 59.56 205.96 57.05 205.75 54.73 206.57 C 52.78 209.07 51.66 212.15 49.43 214.44 C 47.87 216.06 45.47 216.48 43.33 216.09 C 40.53 212.88 41.36 208.33 40.63 204.45 C 31.59 205.03 22.49 204.80 13.51 203.55 C 10.31 203.03 7.06 202.40 4.17 200.88 C 1.87 199.59 1.04 196.88 0.00 194.63 L 0.00 185.30 C 1.46 183.05 2.98 180.54 5.58 179.48 C 11.89 176.88 18.97 178.55 25.40 176.62 C 26.94 173.22 27.57 169.50 29.05 166.08 C 31.20 160.65 35.28 156.36 38.71 151.74 C 42.21 146.84 47.47 143.73 52.17 140.13 C 57.72 135.92 64.06 132.94 70.51 130.39 C 75.34 128.42 80.81 128.13 85.26 125.22 C 93.35 120.26 100.06 113.42 107.08 107.11 C 111.91 102.27 117.60 98.27 121.81 92.83 C 124.83 88.86 126.59 84.14 128.70 79.67 C 130.17 76.36 131.87 73.13 132.85 69.63 C 129.07 69.32 125.17 69.77 121.51 68.58 C 117.68 67.21 115.16 63.50 114.30 59.64 C 112.99 54.36 114.42 48.95 115.85 43.85 C 117.71 37.57 119.59 31.27 122.29 25.30 C 123.63 22.47 125.06 19.56 127.38 17.40 C 130.53 14.45 135.43 14.08 139.34 15.59 C 142.57 16.83 144.90 19.49 147.74 21.35 C 151.43 16.53 154.29 10.97 159.05 7.05 C 163.40 3.23 169.05 1.51 174.52 0.00 M 176.33 4.32 C 170.22 4.96 163.98 7.16 159.74 11.77 C 155.40 16.52 152.32 22.24 148.08 27.07 C 146.90 28.50 145.53 29.79 144.60 31.40 C 145.49 32.79 147.30 33.84 147.02 35.70 C 142.58 37.66 137.77 38.87 133.70 41.61 C 131.48 43.03 128.96 44.99 128.99 47.89 C 130.73 52.16 135.94 53.51 140.16 53.19 C 138.61 51.79 138.21 49.65 136.86 48.12 C 138.70 46.96 140.79 46.15 142.99 46.07 C 149.33 45.71 155.68 46.12 162.02 46.21 C 168.13 46.38 174.27 45.93 180.36 46.70 C 183.16 46.96 185.99 47.43 188.81 47.09 C 191.24 45.88 192.54 43.27 194.31 41.32 C 196.77 38.04 200.30 35.83 202.99 32.79 C 202.72 28.84 201.04 25.17 199.53 21.57 C 197.08 15.80 193.20 10.33 187.54 7.36 C 184.08 5.61 180.27 4.05 176.33 4.32 M 131.40 19.19 C 130.22 20.14 129.32 21.38 128.46 22.62 C 123.27 30.51 119.86 39.55 118.67 48.93 C 118.14 53.31 117.04 58.35 119.70 62.27 C 123.54 66.70 130.31 66.75 135.25 64.27 C 136.75 62.65 137.50 60.46 137.86 58.31 C 135.11 56.92 132.10 56.10 129.42 54.58 C 125.87 52.62 124.47 47.79 126.15 44.15 C 127.97 39.16 133.68 37.70 136.91 33.90 C 139.38 30.97 141.98 28.13 144.19 25.00 C 142.47 20.01 136.22 17.67 131.40 19.19 M 220.20 23.37 C 218.15 24.03 216.45 25.42 214.86 26.82 C 210.29 30.93 206.25 35.61 201.59 39.63 C 199.31 41.65 196.84 43.53 195.10 46.07 C 193.58 48.20 192.47 50.63 190.75 52.62 C 186.15 52.07 181.70 50.43 177.02 50.62 C 168.65 50.83 160.31 50.15 151.95 50.12 C 149.83 50.16 147.64 50.05 145.59 50.74 C 143.89 53.26 143.47 56.41 142.08 59.09 C 138.64 65.95 136.94 73.55 133.12 80.23 C 131.33 83.27 129.84 86.48 128.77 89.85 C 127.76 93.40 124.94 95.92 122.32 98.32 C 112.03 107.35 102.53 117.25 92.02 126.03 C 98.01 126.47 104.03 126.38 110.00 127.11 C 115.41 127.68 120.69 129.05 126.09 129.74 C 124.04 126.46 121.11 123.57 120.26 119.67 C 119.11 114.07 119.94 108.19 121.84 102.84 C 123.68 97.58 128.00 93.02 133.41 91.43 C 136.97 90.44 139.90 93.37 142.96 94.66 C 144.90 91.08 146.31 87.14 149.09 84.08 C 152.41 80.21 157.51 77.09 162.79 78.18 C 166.06 78.78 167.93 81.84 169.53 84.45 C 176.68 96.95 177.87 113.13 171.14 126.06 C 168.91 130.53 165.91 135.30 160.82 136.78 C 157.27 138.20 153.48 137.16 149.80 137.16 C 147.26 137.17 144.65 137.69 142.19 136.83 C 134.67 134.27 126.71 133.65 118.97 132.08 C 123.31 134.10 128.20 134.49 132.57 136.41 C 132.69 137.05 132.93 138.34 133.06 138.98 C 127.09 138.90 121.51 136.56 115.72 135.41 C 109.55 134.16 103.31 133.22 97.05 132.65 C 91.08 132.10 85.05 131.17 79.08 132.16 C 74.68 132.95 70.54 134.78 66.69 137.00 C 73.48 136.90 80.21 135.69 87.01 135.75 C 93.72 135.70 100.36 136.81 106.92 138.08 C 112.50 139.20 118.18 140.76 122.84 144.14 C 127.98 147.24 127.34 155.46 122.97 158.96 C 116.80 164.63 107.98 165.39 100.00 165.65 C 88.75 165.75 77.25 165.94 66.36 162.66 C 61.44 161.20 56.84 158.42 53.64 154.36 C 51.78 152.04 51.60 148.96 50.74 146.22 C 46.01 148.78 42.21 152.76 38.80 156.86 C 34.39 162.72 30.55 169.54 30.18 177.03 C 29.95 181.49 32.50 185.41 35.37 188.58 C 38.73 192.20 41.79 196.70 46.77 198.17 C 53.28 200.09 60.31 199.66 66.82 197.89 C 63.94 193.91 59.92 190.93 57.00 186.99 C 55.88 185.86 56.62 184.33 56.93 183.03 C 61.55 184.76 64.22 189.11 67.49 192.50 C 73.92 199.52 82.35 204.37 91.07 207.98 C 100.37 211.28 110.16 213.09 119.96 214.09 C 126.82 214.90 133.75 213.56 140.14 211.09 C 145.53 209.03 150.54 205.63 153.79 200.79 C 155.88 197.56 159.13 194.77 159.56 190.74 C 160.06 189.09 160.04 187.29 160.65 185.72 C 165.02 185.37 169.45 186.44 173.83 185.81 C 178.39 185.16 183.03 183.61 186.47 180.43 C 191.25 175.88 194.47 169.57 194.85 162.93 C 194.92 161.07 194.96 158.87 193.38 157.56 C 189.00 153.36 183.28 151.02 178.30 147.66 C 176.95 146.89 176.44 145.37 176.11 143.95 C 180.62 143.88 184.30 146.75 187.74 149.29 C 192.87 153.47 199.74 155.83 202.91 162.07 C 204.72 164.25 204.98 169.14 201.19 169.13 C 200.65 167.11 200.34 165.05 199.83 163.03 C 197.93 165.85 198.01 169.51 196.58 172.57 C 194.73 177.91 190.89 182.12 187.15 186.20 C 195.17 185.90 203.13 184.79 211.13 184.26 C 213.84 183.97 216.68 184.07 219.26 183.09 C 221.55 181.88 223.55 180.04 224.93 177.85 C 224.58 173.32 221.63 169.57 218.66 166.36 C 213.91 161.40 209.02 156.50 203.28 152.68 C 200.74 150.87 197.89 149.48 195.54 147.41 C 195.39 146.87 195.11 145.78 194.96 145.24 C 200.62 141.11 208.13 142.02 214.57 143.42 C 220.28 144.96 226.23 144.96 232.10 144.98 C 230.53 139.71 227.32 135.16 224.48 130.52 C 220.03 123.47 213.45 118.21 207.41 112.60 C 204.66 110.00 201.46 107.75 199.41 104.51 C 198.53 103.35 199.42 102.06 200.02 101.03 C 204.85 104.18 208.15 109.17 213.15 112.11 C 213.58 104.03 211.77 96.06 211.78 87.99 C 211.67 82.12 212.29 76.11 210.73 70.36 C 209.54 65.99 206.13 62.73 204.38 58.62 C 203.13 55.75 202.03 52.78 201.52 49.69 C 201.27 48.65 201.48 47.72 202.17 46.90 C 202.76 46.98 203.94 47.15 204.53 47.23 C 206.07 51.22 206.53 55.59 208.56 59.40 C 210.88 63.88 213.60 68.24 217.26 71.75 C 219.43 73.80 222.53 75.58 225.60 74.67 C 228.59 73.64 231.42 71.47 232.43 68.37 C 234.53 62.30 233.82 55.71 232.52 49.55 C 231.22 43.12 228.50 37.13 225.92 31.14 C 225.00 29.07 224.12 26.95 222.84 25.08 C 222.15 24.40 221.35 22.76 220.20 23.37 M 158.39 82.37 C 154.07 83.52 151.22 87.38 149.10 91.07 C 147.18 94.75 145.25 98.61 144.84 102.79 C 145.81 104.86 148.29 105.70 149.77 107.40 C 151.01 110.94 150.42 114.87 149.48 118.42 C 149.06 120.41 147.26 121.60 145.76 122.78 C 146.51 126.96 148.64 131.58 152.95 133.07 C 157.04 135.02 161.72 132.60 164.32 129.33 C 169.36 123.10 171.45 114.89 171.67 107.00 C 171.60 98.62 169.36 89.76 163.60 83.44 C 162.39 81.83 160.14 81.88 158.39 82.37 M 133.41 95.35 C 125.68 99.17 122.64 108.95 123.92 117.06 C 124.43 121.92 127.76 126.91 132.84 127.70 C 135.46 126.55 137.49 124.22 138.66 121.64 C 139.24 119.13 138.82 116.52 138.95 113.96 C 138.93 109.32 140.33 104.75 139.94 100.10 C 139.64 97.11 136.46 94.40 133.41 95.35 M 141.20 126.62 C 139.20 128.00 137.47 129.76 136.09 131.76 C 138.59 132.41 141.14 132.92 143.72 133.14 C 143.27 130.79 142.62 128.48 141.77 126.24 L 141.20 126.62 M 113.80 131.25 C 113.65 132.91 117.34 132.91 117.19 131.25 C 116.40 130.29 114.58 130.28 113.80 131.25 M 75.40 140.43 C 68.83 141.60 61.35 141.68 56.15 146.41 C 55.10 149.82 57.61 152.90 60.07 154.94 C 63.57 158.06 68.30 159.19 72.87 159.54 C 78.72 160.05 84.46 162.09 90.39 161.43 C 96.07 160.84 101.99 161.56 107.43 159.47 C 110.74 158.21 114.14 156.90 116.90 154.62 C 117.59 151.47 115.23 148.86 113.48 146.54 C 112.06 145.00 110.74 143.00 108.60 142.47 C 97.62 140.84 86.51 138.84 75.40 140.43 M 202.83 146.98 C 206.48 151.09 211.33 153.87 215.21 157.76 C 219.59 162.06 224.45 166.26 226.97 172.00 C 228.97 177.04 230.40 182.82 228.18 188.04 C 226.16 187.21 225.97 183.37 223.33 184.20 C 219.07 188.90 215.60 197.08 220.45 202.55 C 223.21 204.54 226.98 204.36 229.75 206.29 C 231.35 208.86 230.97 212.08 231.13 214.98 C 231.28 219.61 230.42 224.17 230.08 228.77 C 233.09 230.80 237.77 232.03 240.58 229.01 C 240.39 227.24 239.79 225.54 239.69 223.77 C 239.88 221.24 240.99 218.86 241.06 216.30 C 238.98 216.04 236.88 215.97 234.81 215.72 C 235.00 215.40 235.39 214.75 235.58 214.42 C 239.11 211.71 243.83 211.10 247.29 208.28 C 247.44 207.99 247.73 207.42 247.88 207.13 C 246.63 204.78 244.81 202.75 243.85 200.25 C 243.34 198.59 243.85 196.87 244.12 195.22 C 244.85 191.89 245.46 188.53 246.29 185.23 C 247.34 181.09 250.05 177.43 250.07 173.04 C 250.20 168.02 250.64 162.12 246.75 158.28 C 243.43 155.20 239.37 152.73 234.90 151.79 C 236.01 154.67 237.91 157.22 238.67 160.23 C 239.20 163.89 239.15 167.61 239.68 171.27 C 240.40 176.78 240.24 182.66 237.74 187.73 C 237.33 187.82 236.51 187.99 236.10 188.08 C 234.98 180.68 237.91 173.27 236.15 165.94 C 235.30 160.27 232.66 154.42 227.35 151.65 C 220.11 146.97 211.22 146.16 202.83 146.98 M 12.36 181.34 C 9.01 181.69 5.15 182.81 3.66 186.16 C 2.62 189.21 3.22 192.63 4.43 195.55 C 5.44 197.96 8.02 199.08 10.41 199.63 C 20.13 201.90 30.21 200.96 40.04 200.05 C 37.29 195.54 32.96 192.29 30.10 187.86 C 28.76 185.81 27.74 183.56 26.35 181.54 C 21.81 180.32 16.98 180.95 12.36 181.34 M 251.33 184.23 C 248.93 186.66 248.13 190.19 247.34 193.41 C 246.49 196.62 247.44 199.98 249.16 202.72 C 250.38 202.54 251.58 202.20 252.72 201.73 C 253.22 197.97 252.68 194.12 253.48 190.40 C 254.08 188.13 255.01 185.98 255.73 183.75 C 254.25 183.81 252.77 183.90 251.33 184.23 M 259.32 186.28 C 255.10 189.85 255.26 196.47 256.91 201.30 C 262.23 198.36 264.14 190.40 259.91 185.80 L 259.32 186.28 M 212.44 188.42 C 199.65 189.44 186.81 190.44 173.97 189.88 C 170.47 189.81 166.90 189.45 163.47 190.31 C 162.23 192.63 161.51 195.24 161.14 197.85 C 164.62 198.08 168.11 198.04 171.58 198.46 C 179.68 199.51 187.86 198.82 196.00 198.99 C 201.88 198.85 207.79 199.41 213.66 198.78 C 215.32 195.51 215.83 191.77 215.92 188.14 C 214.75 188.18 213.59 188.27 212.44 188.42 M 69.41 201.00 C 68.93 201.48 67.99 202.45 67.51 202.93 C 69.51 203.22 71.52 203.15 73.53 203.20 C 72.47 202.23 71.11 199.71 69.41 201.00 M 46.37 202.46 L 45.66 202.64 C 44.38 205.93 44.33 209.58 45.19 212.99 C 48.97 211.68 50.46 207.06 49.67 203.42 C 48.67 202.90 47.55 202.16 46.37 202.46 M 159.38 202.31 C 156.88 203.76 154.90 205.90 152.71 207.74 C 150.14 210.00 147.30 211.92 144.73 214.18 C 149.16 216.10 153.95 217.16 158.76 217.50 C 161.87 217.66 164.80 216.37 167.87 216.09 C 168.94 216.31 170.14 216.95 170.22 218.19 C 170.85 220.96 171.19 223.85 172.57 226.38 C 174.27 230.13 177.06 234.16 175.68 238.45 C 173.17 240.11 169.86 240.49 167.84 242.88 C 162.78 248.20 159.95 255.06 156.34 261.34 C 150.99 270.52 146.18 280.35 144.81 291.00 C 143.87 297.26 145.72 303.38 146.65 309.51 C 146.98 311.83 147.78 314.03 148.80 316.12 C 148.13 307.67 145.90 298.94 148.59 290.61 C 150.38 285.32 154.25 279.83 160.24 279.18 C 165.58 278.11 169.68 282.54 172.83 286.18 C 179.53 293.69 182.69 303.41 186.38 312.58 C 190.82 322.98 195.84 333.89 205.30 340.69 C 209.44 343.46 213.66 346.86 218.82 347.25 C 221.06 345.19 222.44 342.39 223.55 339.60 C 224.62 336.77 225.45 333.57 224.30 330.64 C 220.91 321.76 215.52 313.82 209.40 306.61 C 205.17 301.81 201.81 296.29 197.21 291.82 C 195.59 290.13 193.75 288.29 193.51 285.84 C 193.41 284.54 194.14 282.74 195.75 283.19 C 197.79 284.84 199.22 287.08 200.73 289.21 C 208.85 301.37 219.80 311.62 226.16 324.94 C 227.59 328.06 229.29 331.34 228.99 334.87 C 228.51 339.08 226.43 342.85 224.77 346.69 C 223.79 348.72 223.04 350.91 221.64 352.71 C 219.41 355.14 216.46 356.76 214.25 359.20 C 212.85 360.60 211.84 362.32 210.43 363.71 C 208.79 364.56 206.83 364.29 205.05 364.41 C 197.99 364.34 190.91 364.05 183.87 364.80 C 171.74 365.79 159.04 367.82 148.83 374.89 C 145.84 376.81 145.68 381.36 148.33 383.64 C 152.58 387.51 158.08 390.37 163.81 391.10 C 165.96 389.11 167.54 386.62 169.46 384.43 C 172.88 380.39 177.36 377.43 182.00 374.98 C 185.44 373.20 189.01 371.43 192.93 371.06 C 192.82 371.68 192.61 372.91 192.50 373.52 C 188.65 376.64 183.50 377.56 179.52 380.53 C 175.07 383.82 170.45 387.52 168.24 392.75 C 171.97 393.98 175.83 395.10 179.79 395.13 C 182.60 393.17 184.45 390.20 186.89 387.85 C 192.02 382.69 198.95 380.03 204.76 375.80 C 206.51 374.58 208.16 373.18 210.06 372.18 C 210.57 372.42 211.59 372.90 212.10 373.14 C 211.43 375.87 208.87 377.32 206.66 378.69 C 201.67 381.63 196.73 384.66 191.99 388.00 C 189.13 390.00 186.67 392.65 185.21 395.85 C 188.46 396.61 191.81 396.55 195.11 396.17 C 202.82 395.29 210.77 396.48 218.32 394.23 C 222.52 392.95 226.75 390.93 229.61 387.49 C 230.84 384.80 229.90 381.60 229.29 378.83 C 227.95 373.94 223.27 371.36 219.61 368.39 C 217.90 367.21 217.67 365.00 217.27 363.14 C 219.35 362.06 222.23 362.87 223.71 360.72 C 230.11 353.63 236.47 346.31 240.73 337.69 C 241.95 334.95 243.22 331.83 242.23 328.82 C 240.14 321.69 234.26 316.76 230.37 310.68 C 226.18 304.21 222.01 297.72 217.60 291.40 C 215.06 287.64 211.35 284.66 209.59 280.40 C 208.84 278.88 209.31 277.20 210.10 275.81 C 212.18 276.71 213.21 278.81 214.39 280.60 C 217.94 286.58 222.84 291.63 226.33 297.65 C 231.94 306.87 239.59 314.68 244.99 324.04 C 247.67 328.60 246.30 334.12 244.72 338.81 C 242.93 344.26 238.95 348.51 235.86 353.20 C 238.73 355.77 242.25 357.45 245.43 359.61 C 247.16 360.63 248.86 362.05 250.99 362.02 C 256.54 362.09 262.12 361.43 267.52 360.14 C 263.21 357.94 258.39 356.56 254.71 353.31 C 249.97 349.14 246.70 342.61 248.22 336.21 C 249.60 330.38 252.66 325.05 256.38 320.41 C 260.37 315.31 266.25 312.31 270.91 307.94 C 274.21 304.91 278.07 301.85 282.80 301.92 C 283.28 302.83 283.69 303.77 284.02 304.76 C 275.91 309.05 267.95 313.93 261.34 320.36 C 256.11 326.28 251.09 333.71 252.00 342.00 C 252.30 345.80 255.22 348.72 258.19 350.79 C 262.88 353.86 268.34 355.92 273.98 356.16 C 278.94 356.45 283.92 355.57 288.87 356.16 C 288.85 356.78 288.80 358.04 288.77 358.66 C 286.30 359.71 283.62 360.05 281.01 360.54 C 283.08 361.60 286.58 361.24 287.20 363.99 C 285.94 364.75 284.49 365.09 283.02 365.08 C 278.41 365.18 273.78 364.68 269.19 365.30 C 262.70 366.19 256.43 368.21 250.20 370.16 C 246.20 371.42 241.97 372.19 238.34 374.36 C 236.56 375.48 234.65 377.01 234.38 379.25 C 234.21 381.15 234.64 383.44 236.42 384.51 C 239.03 386.15 242.32 387.35 245.42 386.57 C 247.49 383.90 248.81 380.64 251.37 378.36 C 254.29 375.77 257.85 374.04 261.34 372.35 C 264.67 370.73 268.32 369.61 272.06 369.89 C 271.98 370.58 271.83 371.95 271.75 372.64 C 267.05 375.26 261.53 376.07 256.97 379.00 C 253.68 381.09 250.33 383.88 249.57 387.93 C 254.17 389.34 259.11 389.33 263.86 388.80 C 266.91 388.47 268.74 385.70 270.74 383.70 C 274.01 379.94 277.99 376.47 282.94 375.23 C 283.71 375.88 284.04 376.71 283.92 377.72 C 281.93 379.52 279.51 380.76 277.40 382.41 C 275.19 384.12 273.58 386.47 272.16 388.85 C 286.45 387.73 301.49 385.13 313.13 376.16 C 316.86 373.51 318.95 368.80 317.88 364.28 C 314.26 359.41 307.02 360.92 302.70 357.22 C 302.89 355.41 304.39 353.54 303.29 351.80 C 301.27 347.94 298.00 344.93 295.78 341.21 C 295.02 340.09 294.58 338.67 294.94 337.33 C 296.92 335.49 299.37 334.22 301.20 332.22 C 302.95 330.11 303.95 327.53 305.45 325.26 C 306.21 325.56 308.29 325.64 307.70 326.92 C 307.16 332.19 302.83 335.52 299.40 339.03 C 300.62 341.39 302.29 343.85 304.81 344.91 C 311.70 338.90 314.91 329.08 312.95 320.15 C 310.27 306.95 303.56 294.52 293.82 285.19 C 286.40 276.92 276.48 271.07 265.82 268.08 C 261.26 266.69 256.56 265.50 251.75 265.71 C 256.14 270.65 262.96 274.66 263.20 282.03 C 257.28 278.99 254.69 272.12 248.79 269.03 C 250.26 276.13 255.33 282.27 255.07 289.76 C 254.04 290.82 251.83 291.27 251.85 289.20 C 248.47 277.34 243.61 265.25 234.06 256.98 C 232.00 255.07 229.06 254.94 226.44 254.45 C 220.52 253.60 214.54 251.89 209.65 248.34 C 206.73 246.18 205.48 242.56 202.86 240.14 C 199.60 237.73 195.67 236.50 191.92 235.06 C 189.25 234.15 186.60 232.98 183.78 232.66 C 182.14 232.90 180.57 233.42 178.98 233.84 C 177.03 229.50 176.91 224.62 176.91 219.95 C 177.05 218.04 176.88 215.67 178.58 214.36 C 181.90 213.11 185.53 213.14 189.03 212.89 C 196.03 212.51 203.39 212.19 209.68 208.72 C 211.97 207.53 213.68 205.52 214.95 203.31 C 208.48 202.74 201.97 202.89 195.49 202.38 C 185.67 201.55 175.81 202.31 165.97 201.87 C 163.78 201.92 161.46 201.49 159.38 202.31 M 218.40 207.41 C 216.95 208.25 215.68 209.35 214.34 210.33 C 210.25 213.50 205.23 215.20 200.23 216.24 C 194.09 217.51 187.74 216.55 181.60 217.71 C 179.56 220.41 180.55 224.34 181.83 227.16 C 184.80 228.81 188.18 229.51 191.39 230.58 C 195.18 231.69 198.85 233.24 202.76 233.93 C 203.86 233.31 204.38 232.06 205.15 231.11 C 208.03 226.55 212.78 223.11 218.12 222.17 C 220.98 221.59 223.89 221.34 226.72 220.63 C 227.10 217.06 227.42 213.20 226.16 209.79 C 223.85 208.42 221.12 207.14 218.40 207.41 M 114.22 218.24 C 114.00 220.01 113.83 221.85 114.32 223.59 C 115.20 225.04 116.60 226.10 118.06 226.94 C 121.46 225.47 122.22 221.42 122.20 218.10 C 119.55 217.84 116.85 217.81 114.22 218.24 M 221.42 225.33 C 216.59 226.43 211.84 228.84 208.78 232.83 C 206.14 236.11 207.32 241.11 210.19 243.84 C 214.15 247.69 219.79 248.80 224.98 250.03 C 229.71 251.02 234.56 252.39 239.43 251.54 C 245.53 250.64 252.20 249.31 256.57 244.59 C 258.87 241.29 260.34 236.06 257.19 232.80 C 253.70 229.43 249.31 226.57 244.39 226.02 C 244.03 228.12 243.90 230.26 243.34 232.33 C 241.88 234.26 239.17 233.96 237.04 234.14 C 234.11 234.08 230.90 234.29 228.30 232.69 C 225.59 231.02 227.42 227.25 225.66 225.01 C 224.24 224.92 222.81 225.02 221.42 225.33 M 300.39 258.19 C 299.27 258.82 298.75 259.78 298.84 261.06 C 298.94 265.42 300.80 269.57 300.68 273.96 C 300.56 277.44 298.88 280.60 298.27 283.98 C 299.29 286.67 301.76 288.56 304.08 290.11 C 310.05 288.03 313.44 280.71 311.28 274.79 C 309.27 268.47 307.18 261.28 301.06 257.70 L 300.39 258.19 M 158.39 284.30 C 154.60 286.01 152.57 290.15 151.95 294.09 C 150.93 300.66 152.03 307.31 152.93 313.83 C 153.92 321.02 156.13 328.00 159.44 334.46 C 161.73 339.83 165.66 344.20 169.55 348.47 C 173.60 352.90 178.79 356.09 184.02 358.94 C 188.97 361.70 194.73 359.79 200.02 359.45 C 205.53 358.84 212.09 357.45 215.09 352.26 C 211.72 350.13 208.03 348.53 204.82 346.15 C 197.25 340.70 191.72 332.95 187.18 324.90 C 181.26 313.03 178.79 299.33 170.04 288.97 C 167.46 285.42 162.89 282.16 158.39 284.30 M 139.47 297.50 C 135.77 299.23 132.77 302.07 129.77 304.76 C 126.47 307.80 122.90 310.59 120.02 314.05 C 115.16 319.79 110.19 325.48 104.48 330.39 C 100.53 333.76 97.01 337.61 93.03 340.96 C 91.01 342.69 88.91 344.35 87.09 346.31 C 90.66 349.49 95.45 350.85 99.07 353.98 C 101.18 355.80 103.25 357.79 104.67 360.22 C 104.01 365.57 98.82 369.94 100.21 375.61 C 104.99 380.40 111.78 382.42 118.25 383.72 C 123.84 384.68 129.46 385.59 135.12 385.87 C 134.65 383.93 133.86 382.03 132.39 380.64 C 128.27 376.46 123.22 373.32 119.17 369.07 C 120.15 368.31 121.25 366.66 122.65 367.54 C 126.20 369.45 128.98 372.45 132.12 374.92 C 135.24 377.30 136.97 380.87 139.12 384.03 C 139.94 385.72 141.99 385.28 143.51 385.36 C 143.49 382.65 143.01 379.94 143.29 377.23 C 143.82 374.59 145.58 372.45 146.65 370.04 C 144.29 367.63 141.07 366.39 138.42 364.38 C 138.30 363.83 138.06 362.73 137.94 362.18 C 138.46 361.96 139.49 361.52 140.01 361.30 C 144.11 362.25 146.67 365.97 150.21 367.95 C 153.67 367.58 157.58 366.38 160.02 364.12 C 153.10 359.58 144.89 357.55 136.84 356.08 C 131.63 355.08 126.32 355.14 121.04 354.92 C 119.87 354.88 117.81 354.55 118.02 352.94 C 118.94 351.12 119.71 348.63 118.21 346.89 C 116.90 344.57 114.24 343.81 112.22 342.31 C 110.79 337.77 114.81 334.34 116.89 330.82 C 121.17 324.00 126.47 317.79 132.84 312.83 C 135.45 310.68 138.50 309.05 140.85 306.59 C 141.81 303.43 141.37 300.05 141.06 296.83 C 140.66 297.00 139.86 297.33 139.47 297.50 M 141.45 311.72 C 134.13 315.68 128.86 322.37 123.81 328.80 C 121.83 331.45 119.51 333.99 118.46 337.18 C 119.08 339.72 120.57 341.93 121.82 344.20 C 123.19 346.37 124.50 348.77 126.70 350.23 C 131.18 351.76 135.99 351.72 140.63 352.47 C 148.06 353.66 155.61 355.70 161.77 360.20 C 163.43 361.20 164.90 362.98 167.01 362.85 C 170.17 362.77 173.29 362.04 176.32 361.16 C 173.50 358.48 170.32 356.16 167.79 353.20 C 165.01 349.96 162.52 346.49 159.70 343.30 C 154.09 336.88 149.33 329.64 146.23 321.67 C 144.89 318.22 144.01 314.61 142.72 311.14 C 142.40 311.28 141.77 311.57 141.45 311.72 M 232.33 358.25 C 231.49 358.92 230.77 359.73 230.08 360.56 C 233.69 361.22 237.36 361.62 241.04 361.74 C 238.53 359.83 235.57 358.16 232.33 358.25 M 227.33 365.48 C 226.88 365.60 225.99 365.85 225.54 365.97 C 226.75 368.43 228.16 371.01 230.51 372.54 C 231.95 373.27 233.35 372.21 234.63 371.63 C 238.31 369.44 242.28 367.83 246.21 366.16 C 239.91 366.22 233.59 364.70 227.33 365.48 Z" />
<path fill="#000000" stroke="#000000" stroke-width="0.09375" opacity="1.00" d=" M 159.42 18.45 L 159.93 17.82 C 160.61 19.34 161.43 21.04 160.76 22.73 C 159.53 26.49 157.38 29.98 154.68 32.86 C 153.76 32.92 152.98 32.63 152.33 31.99 C 154.32 27.31 156.43 22.59 159.42 18.45 Z" />
<path fill="#000000" stroke="#000000" stroke-width="0.09375" opacity="1.00" d=" M 176.13 18.13 C 176.55 18.11 177.39 18.07 177.81 18.06 C 178.28 23.20 178.31 28.60 176.51 33.51 C 176.17 35.03 174.65 35.07 173.40 35.19 C 174.03 29.50 173.63 23.41 176.13 18.13 Z" />
<path fill="#000000" stroke="#000000" stroke-width="0.09375" opacity="1.00" d=" M 166.51 19.29 C 167.42 19.23 168.14 19.57 168.66 20.33 C 168.50 24.06 167.41 27.70 166.11 31.19 C 165.59 32.82 164.40 34.10 163.04 35.09 C 162.46 33.59 161.82 31.94 162.40 30.34 C 163.50 26.57 164.93 22.88 166.51 19.29 Z" />
<path fill="#000000" stroke="#000000" stroke-width="0.09375" opacity="1.00" d=" M 185.17 19.15 C 185.59 19.10 186.44 19.00 186.87 18.95 C 187.27 24.33 187.31 30.00 185.24 35.07 C 184.74 35.32 183.75 35.82 183.25 36.07 C 182.84 30.45 182.23 24.23 185.17 19.15 Z" />
<path fill="#000000" stroke="#000000" stroke-width="0.09375" opacity="1.00" d=" M 191.11 20.99 C 191.78 21.00 193.13 21.01 193.80 21.02 C 196.06 25.53 195.90 30.87 194.65 35.65 C 194.06 35.69 192.88 35.77 192.28 35.82 C 191.37 30.94 190.84 25.95 191.11 20.99 Z" />
<path fill="#000000" stroke="#000000" stroke-width="0.09375" opacity="1.00" d=" M 163.49 63.45 C 166.35 62.13 169.34 63.67 171.59 65.44 C 174.68 67.80 178.75 70.49 178.02 75.00 C 173.82 75.59 171.62 71.53 168.76 69.29 C 166.00 66.97 161.56 68.72 158.97 66.17 C 160.36 65.09 161.84 64.08 163.49 63.45 Z" />
<path fill="#000000" stroke="#000000" stroke-width="0.09375" opacity="1.00" d=" M 143.49 69.48 C 146.49 68.46 149.76 68.61 152.83 69.22 C 152.85 71.05 153.89 73.77 151.74 74.76 C 147.41 74.37 143.06 74.44 138.75 73.93 C 138.95 71.46 141.47 70.28 143.49 69.48 Z" />
<path fill="#000000" stroke="#000000" stroke-width="0.09375" opacity="1.00" d=" M 126.41 108.10 C 127.78 107.40 129.36 107.46 130.81 107.86 C 133.20 111.28 133.06 116.30 130.42 119.52 C 129.14 120.25 127.59 120.23 126.16 120.27 C 123.78 116.58 125.09 111.93 126.41 108.10 Z" />
<path fill="#000000" stroke="#000000" stroke-width="0.09375" opacity="1.00" d=" M 73.35 148.19 C 76.59 147.84 79.79 148.69 83.01 148.87 C 91.41 149.60 99.95 148.07 108.29 149.67 C 109.57 150.21 111.91 150.27 112.10 151.97 C 110.71 153.01 108.95 152.88 107.33 152.70 C 96.94 151.23 86.43 152.37 75.98 152.01 C 74.56 151.96 73.08 151.78 71.96 150.83 C 71.74 149.58 72.20 148.70 73.35 148.19 Z" />
<path fill="#000000" stroke="#000000" stroke-width="0.09375" opacity="1.00" d=" M 39.21 168.97 C 42.33 168.74 45.26 170.77 46.82 173.36 C 47.59 176.02 46.83 179.14 44.65 180.93 C 42.12 181.40 38.86 180.73 37.87 178.03 C 36.86 175.11 36.72 171.21 39.21 168.97 M 40.05 174.02 C 40.70 175.31 41.36 176.60 42.16 177.81 C 42.83 177.33 43.43 176.77 43.94 176.13 C 42.70 175.33 41.39 174.64 40.05 174.02 Z" />
<path fill="#000000" stroke="#000000" stroke-width="0.09375" opacity="1.00" d=" M 135.41 175.31 C 139.16 174.71 143.14 178.18 143.07 182.02 C 143.21 184.35 143.22 187.01 141.56 188.86 C 138.49 190.17 135.24 187.85 133.78 185.23 C 132.30 181.97 133.50 178.12 135.41 175.31 M 137.40 180.63 C 137.11 180.82 136.52 181.20 136.22 181.39 C 136.47 183.52 137.81 185.29 139.85 186.01 C 139.72 183.99 139.38 181.98 138.76 180.04 C 138.42 180.19 137.74 180.48 137.40 180.63 Z" />
<path fill="#000000" stroke="#000000" stroke-width="0.09375" opacity="1.00" d=" M 47.20 183.82 C 51.24 183.46 54.13 187.62 54.73 191.21 C 55.43 194.30 51.84 198.05 48.80 196.23 C 44.16 194.08 44.59 187.39 47.20 183.82 M 49.19 189.33 C 49.10 190.46 49.08 191.60 49.13 192.74 C 49.53 192.69 50.35 192.60 50.76 192.55 C 50.75 191.13 51.58 188.54 49.19 189.33 Z" />
<path fill="#000000" stroke="#000000" stroke-width="0.09375" opacity="1.00" d=" M 117.33 185.04 C 118.71 184.43 120.29 184.60 121.70 185.03 C 123.77 188.42 124.87 192.69 123.76 196.59 C 121.36 198.81 117.00 198.58 115.13 195.79 C 112.51 192.54 113.48 186.86 117.33 185.04 M 118.05 188.88 C 117.70 190.04 117.31 191.26 117.45 192.49 C 118.13 193.47 119.05 194.23 119.94 195.01 C 119.79 192.86 119.91 190.37 118.05 188.88 Z" />
<path fill="#000000" stroke="#000000" stroke-width="0.09375" opacity="1.00" d=" M 128.46 193.36 C 133.83 192.13 137.12 199.11 135.66 203.52 C 134.18 208.20 126.67 205.80 126.43 201.53 C 126.13 198.77 126.04 195.23 128.46 193.36 M 129.98 197.95 C 130.25 199.73 129.96 202.31 132.18 202.91 C 132.44 200.93 131.60 199.11 129.98 197.95 Z" />
<path fill="#000000" stroke="#000000" stroke-width="0.09375" opacity="1.00" d=" M 253.61 233.42 C 254.66 232.40 256.13 233.49 257.08 234.11 C 255.59 239.11 250.10 241.20 245.54 242.49 C 238.01 243.88 230.24 242.90 222.87 241.09 C 219.41 240.20 215.87 239.03 213.13 236.67 C 212.52 235.31 213.60 234.45 214.88 234.39 C 218.14 235.65 221.11 237.68 224.59 238.35 C 232.52 239.93 241.09 240.99 248.75 237.75 C 250.54 236.51 252.11 234.98 253.61 233.42 Z" />
</g>
<g id="#eeb300ff">
<path fill="#eeb300" stroke="#eeb300" stroke-width="0.09375" opacity="1.00" d=" M 176.33 4.32 C 180.27 4.05 184.08 5.61 187.54 7.36 C 193.20 10.33 197.08 15.80 199.53 21.57 C 201.04 25.17 202.72 28.84 202.99 32.79 C 200.30 35.83 196.77 38.04 194.31 41.32 C 192.54 43.27 191.24 45.88 188.81 47.09 C 185.99 47.43 183.16 46.96 180.36 46.70 C 174.27 45.93 168.13 46.38 162.02 46.21 C 155.68 46.12 149.33 45.71 142.99 46.07 C 140.79 46.15 138.70 46.96 136.86 48.12 C 138.21 49.65 138.61 51.79 140.16 53.19 C 135.94 53.51 130.73 52.16 128.99 47.89 C 128.96 44.99 131.48 43.03 133.70 41.61 C 137.77 38.87 142.58 37.66 147.02 35.70 C 147.30 33.84 145.49 32.79 144.60 31.40 C 145.53 29.79 146.90 28.50 148.08 27.07 C 152.32 22.24 155.40 16.52 159.74 11.77 C 163.98 7.16 170.22 4.96 176.33 4.32 M 159.42 18.45 C 156.43 22.59 154.32 27.31 152.33 31.99 C 152.98 32.63 153.76 32.92 154.68 32.86 C 157.38 29.98 159.53 26.49 160.76 22.73 C 161.43 21.04 160.61 19.34 159.93 17.82 L 159.42 18.45 M 176.13 18.13 C 173.63 23.41 174.03 29.50 173.40 35.19 C 174.65 35.07 176.17 35.03 176.51 33.51 C 178.31 28.60 178.28 23.20 177.81 18.06 C 177.39 18.07 176.55 18.11 176.13 18.13 M 166.51 19.29 C 164.93 22.88 163.50 26.57 162.40 30.34 C 161.82 31.94 162.46 33.59 163.04 35.09 C 164.40 34.10 165.59 32.82 166.11 31.19 C 167.41 27.70 168.50 24.06 168.66 20.33 C 168.14 19.57 167.42 19.23 166.51 19.29 M 185.17 19.15 C 182.23 24.23 182.84 30.45 183.25 36.07 C 183.75 35.82 184.74 35.32 185.24 35.07 C 187.31 30.00 187.27 24.33 186.87 18.95 C 186.44 19.00 185.59 19.10 185.17 19.15 M 191.11 20.99 C 190.84 25.95 191.37 30.94 192.28 35.82 C 192.88 35.77 194.06 35.69 194.65 35.65 C 195.90 30.87 196.06 25.53 193.80 21.02 C 193.13 21.01 191.78 21.00 191.11 20.99 Z" />
</g>
<g id="#4d0000ff">
<path fill="#4d0000" stroke="#4d0000" stroke-width="0.09375" opacity="1.00" d=" M 75.40 140.43 C 86.51 138.84 97.62 140.84 108.60 142.47 C 110.74 143.00 112.06 145.00 113.48 146.54 C 115.23 148.86 117.59 151.47 116.90 154.62 C 114.14 156.90 110.74 158.21 107.43 159.47 C 101.99 161.56 96.07 160.84 90.39 161.43 C 84.46 162.09 78.72 160.05 72.87 159.54 C 68.30 159.19 63.57 158.06 60.07 154.94 C 57.61 152.90 55.10 149.82 56.15 146.41 C 61.35 141.68 68.83 141.60 75.40 140.43 M 73.35 148.19 C 72.20 148.70 71.74 149.58 71.96 150.83 C 73.08 151.78 74.56 151.96 75.98 152.01 C 86.43 152.37 96.94 151.23 107.33 152.70 C 108.95 152.88 110.71 153.01 112.10 151.97 C 111.91 150.27 109.57 150.21 108.29 149.67 C 99.95 148.07 91.41 149.60 83.01 148.87 C 79.79 148.69 76.59 147.84 73.35 148.19 Z" />
</g>
<g id="#a39d99ff">
<path fill="#a39d99" stroke="#a39d99" stroke-width="0.09375" opacity="1.00" d=" M 202.83 146.98 C 211.22 146.16 220.11 146.97 227.35 151.65 C 232.66 154.42 235.30 160.27 236.15 165.94 C 237.91 173.27 234.98 180.68 236.10 188.08 C 236.51 187.99 237.33 187.82 237.74 187.73 C 240.24 182.66 240.40 176.78 239.68 171.27 C 239.15 167.61 239.20 163.89 238.67 160.23 C 237.91 157.22 236.01 154.67 234.90 151.79 C 239.37 152.73 243.43 155.20 246.75 158.28 C 250.64 162.12 250.20 168.02 250.07 173.04 C 250.05 177.43 247.34 181.09 246.29 185.23 C 245.46 188.53 244.85 191.89 244.12 195.22 C 243.85 196.87 243.34 198.59 243.85 200.25 C 244.81 202.75 246.63 204.78 247.88 207.13 C 247.73 207.42 247.44 207.99 247.29 208.28 C 243.83 211.10 239.11 211.71 235.58 214.42 C 235.39 214.75 235.00 215.40 234.81 215.72 C 236.88 215.97 238.98 216.04 241.06 216.30 C 240.99 218.86 239.88 221.24 239.69 223.77 C 239.79 225.54 240.39 227.24 240.58 229.01 C 237.77 232.03 233.09 230.80 230.08 228.77 C 230.42 224.17 231.28 219.61 231.13 214.98 C 230.97 212.08 231.35 208.86 229.75 206.29 C 226.98 204.36 223.21 204.54 220.45 202.55 C 215.60 197.08 219.07 188.90 223.33 184.20 C 225.97 183.37 226.16 187.21 228.18 188.04 C 230.40 182.82 228.97 177.04 226.97 172.00 C 224.45 166.26 219.59 162.06 215.21 157.76 C 211.33 153.87 206.48 151.09 202.83 146.98 Z" />
<path fill="#a39d99" stroke="#a39d99" stroke-width="0.09375" opacity="1.00" d=" M 221.42 225.33 C 222.81 225.02 224.24 224.92 225.66 225.01 C 227.42 227.25 225.59 231.02 228.30 232.69 C 230.90 234.29 234.11 234.08 237.04 234.14 C 239.17 233.96 241.88 234.26 243.34 232.33 C 243.90 230.26 244.03 228.12 244.39 226.02 C 249.31 226.57 253.70 229.43 257.19 232.80 C 260.34 236.06 258.87 241.29 256.57 244.59 C 252.20 249.31 245.53 250.64 239.43 251.54 C 234.56 252.39 229.71 251.02 224.98 250.03 C 219.79 248.80 214.15 247.69 210.19 243.84 C 207.32 241.11 206.14 236.11 208.78 232.83 C 211.84 228.84 216.59 226.43 221.42 225.33 M 253.61 233.42 C 252.11 234.98 250.54 236.51 248.75 237.75 C 241.09 240.99 232.52 239.93 224.59 238.35 C 221.11 237.68 218.14 235.65 214.88 234.39 C 213.60 234.45 212.52 235.31 213.13 236.67 C 215.87 239.03 219.41 240.20 222.87 241.09 C 230.24 242.90 238.01 243.88 245.54 242.49 C 250.10 241.20 255.59 239.11 257.08 234.11 C 256.13 233.49 254.66 232.40 253.61 233.42 Z" />
</g>
<g id="#75411fff">
<path fill="#75411f" stroke="#75411f" stroke-width="0.09375" opacity="1.00" d=" M 12.36 181.34 C 16.98 180.95 21.81 180.32 26.35 181.54 C 27.74 183.56 28.76 185.81 30.10 187.86 C 32.96 192.29 37.29 195.54 40.04 200.05 C 30.21 200.96 20.13 201.90 10.41 199.63 C 8.02 199.08 5.44 197.96 4.43 195.55 C 3.22 192.63 2.62 189.21 3.66 186.16 C 5.15 182.81 9.01 181.69 12.36 181.34 Z" />
<path fill="#75411f" stroke="#75411f" stroke-width="0.09375" opacity="1.00" d=" M 251.33 184.23 C 252.77 183.90 254.25 183.81 255.73 183.75 C 255.01 185.98 254.08 188.13 253.48 190.40 C 252.68 194.12 253.22 197.97 252.72 201.73 C 251.58 202.20 250.38 202.54 249.16 202.72 C 247.44 199.98 246.49 196.62 247.34 193.41 C 248.13 190.19 248.93 186.66 251.33 184.23 Z" />
<path fill="#75411f" stroke="#75411f" stroke-width="0.09375" opacity="1.00" d=" M 259.32 186.28 L 259.91 185.80 C 264.14 190.40 262.23 198.36 256.91 201.30 C 255.26 196.47 255.10 189.85 259.32 186.28 Z" />
<path fill="#75411f" stroke="#75411f" stroke-width="0.09375" opacity="1.00" d=" M 212.44 188.42 C 213.59 188.27 214.75 188.18 215.92 188.14 C 215.83 191.77 215.32 195.51 213.66 198.78 C 207.79 199.41 201.88 198.85 196.00 198.99 C 187.86 198.82 179.68 199.51 171.58 198.46 C 168.11 198.04 164.62 198.08 161.14 197.85 C 161.51 195.24 162.23 192.63 163.47 190.31 C 166.90 189.45 170.47 189.81 173.97 189.88 C 186.81 190.44 199.65 189.44 212.44 188.42 Z" />
<path fill="#75411f" stroke="#75411f" stroke-width="0.09375" opacity="1.00" d=" M 69.41 201.00 C 71.11 199.71 72.47 202.23 73.53 203.20 C 71.52 203.15 69.51 203.22 67.51 202.93 C 67.99 202.45 68.93 201.48 69.41 201.00 Z" />
</g>
<g id="#c8ad8dff">
<path fill="#c8ad8d" stroke="#c8ad8d" stroke-width="0.09375" opacity="1.00" d=" M 158.39 284.30 C 162.89 282.16 167.46 285.42 170.04 288.97 C 178.79 299.33 181.26 313.03 187.18 324.90 C 191.72 332.95 197.25 340.70 204.82 346.15 C 208.03 348.53 211.72 350.13 215.09 352.26 C 212.09 357.45 205.53 358.84 200.02 359.45 C 194.73 359.79 188.97 361.70 184.02 358.94 C 178.79 356.09 173.60 352.90 169.55 348.47 C 165.66 344.20 161.73 339.83 159.44 334.46 C 156.13 328.00 153.92 321.02 152.93 313.83 C 152.03 307.31 150.93 300.66 151.95 294.09 C 152.57 290.15 154.60 286.01 158.39 284.30 Z" />
<path fill="#c8ad8d" stroke="#c8ad8d" stroke-width="0.09375" opacity="1.00" d=" M 232.33 358.25 C 235.57 358.16 238.53 359.83 241.04 361.74 C 237.36 361.62 233.69 361.22 230.08 360.56 C 230.77 359.73 231.49 358.92 232.33 358.25 Z" />
</g>
</svg>
